<?xml version="1.0" encoding="UTF-8"?>
<svg width="44px" height="43px" viewBox="0 0 44 43" version="1.1" xmlns="http://www.w3.org/2000/svg" xmlns:xlink="http://www.w3.org/1999/xlink">
    <!-- Generator: Sketch 53.2 (72643) - https://sketchapp.com -->
    <title>logo_amex</title>
    <desc>Created with Sketch.</desc>
    <g id="Page-1" stroke="none" stroke-width="1" fill="none" fill-rule="evenodd">
        <g id="homepage-v1" transform="translate(-906.000000, -778.000000)" fill-rule="nonzero">
            <g id="logo_amex" transform="translate(906.900016, 778.000000)">
                <polygon id="path3078" fill="#016FD0" points="0.0422155705 0.0423508125 42.1529564 0.0423508125 42.1529564 22.84325 40.0685879 26.109856 42.1529564 29.0171364 42.1529564 42.2795503 0.0422155705 42.2795503 0.0422155705 20.7852893 1.3449454 19.2826527 0.0422155705 17.845346"></polygon>
                <path d="M8.21684498,29.4744591 L8.21684498,22.84325 L15.2170423,22.84325 L15.9680877,23.8252706 L16.7439681,22.84325 L42.1529564,22.84325 L42.1529564,29.0171364 C42.1529564,29.0171364 41.4884664,29.4678283 40.7199531,29.4744591 L26.6504718,29.4744591 L25.8036976,28.4291452 L25.8036976,29.4744591 L23.0288829,29.4744591 L23.0288829,27.6900765 C23.0288829,27.6900765 22.649839,27.9391553 21.8303719,27.9391553 L20.8858926,27.9391553 L20.8858926,29.4744591 L16.6845889,29.4744591 L15.9346166,28.4713774 L15.1731292,29.4744591 L8.21684498,29.4744591 Z" id="path3082" fill="#FFFFFF"></path>
                <path d="M0.0422155705,17.845346 L1.62078768,14.1540844 L4.3507633,14.1540844 L5.24662118,16.2217797 L5.24662118,14.1540844 L8.64023254,14.1540844 L9.1735372,15.6485532 L9.69055804,14.1540844 L24.9243548,14.1540844 L24.9243548,14.9054028 C24.9243548,14.9054028 25.7251821,14.1540844 27.0412909,14.1540844 L31.9841006,14.1714109 L32.8644932,16.2120451 L32.8644932,14.1540844 L35.704444,14.1540844 L36.4860822,15.3262645 L36.4860822,14.1540844 L39.3520875,14.1540844 L39.3520875,20.7852893 L36.4860822,20.7852893 L35.7370125,19.6093111 L35.7370125,20.7852893 L31.5644951,20.7852893 L31.1448897,19.7399754 L30.0231764,19.7399754 L29.6104005,20.7852893 L26.7807449,20.7852893 C25.6482746,20.7852893 24.9243548,20.0493116 24.9243548,20.0493116 L24.9243548,20.7852893 L20.657915,20.7852893 L19.8111404,19.7399754 L19.8111404,20.7852893 L3.94633391,20.7852893 L3.52701762,19.7399754 L2.40888125,19.7399754 L1.99252849,20.7852893 L0.0422155705,20.7852893 L0.0422155705,17.845346 Z" id="path3080" fill="#FFFFFF"></path>
                <path d="M2.17950674,14.9715711 L0.0503576454,19.936808 L1.43654356,19.936808 L1.82939803,18.942542 L4.11324625,18.942542 L4.50406534,19.936808 L5.920784,19.936808 L3.79367016,14.9715711 L2.17950674,14.9715711 Z M2.96725098,16.1271318 L3.66339756,17.864561 L2.26906919,17.864561 L2.96725098,16.1271318 L2.96725098,16.1271318 Z" id="path3046" fill="#016FD0"></path>
                <polygon id="path3048" fill="#016FD0" points="6.06734085 19.9359739 6.06734085 14.9707328 8.03718818 14.9780707 9.18291834 18.1793424 10.301213 14.9707328 12.2553076 14.9707328 12.2553076 19.9359739 11.0177143 19.9359739 11.0177143 16.2773752 9.70583924 19.9359739 8.62046721 19.9359739 7.3049342 16.2773752 7.3049342 19.9359739"></polygon>
                <polygon id="path3050" fill="#016FD0" points="13.1020819 19.9359739 13.1020819 14.9707328 17.1405445 14.9707328 17.1405445 16.0813809 14.3527025 16.0813809 14.3527025 16.9306963 17.075408 16.9306963 17.075408 17.9760103 14.3527025 17.9760103 14.3527025 18.8579928 17.1405445 18.8579928 17.1405445 19.9359739"></polygon>
                <path d="M17.8570458,14.9715711 L17.8570458,19.936808 L19.0946391,19.936808 L19.0946391,18.1728429 L19.6157308,18.1728429 L21.0996216,19.936808 L22.6120096,19.936808 L20.9835972,18.1075129 C21.6519077,18.0509477 22.3412858,17.4756254 22.3412858,16.5824179 C22.3412858,15.537557 21.5236433,14.9715711 20.611098,14.9715711 L17.8570458,14.9715711 L17.8570458,14.9715711 Z M19.0946391,16.0822151 L20.5093221,16.0822151 C20.8486851,16.0822151 21.0955508,16.3484722 21.0955508,16.604872 C21.0955508,16.93474 20.7756948,17.127529 20.527642,17.127529 L19.0946391,17.127529 L19.0946391,16.0822151 L19.0946391,16.0822151 Z" id="path3052" fill="#016FD0"></path>
                <polygon id="path3054" fill="#016FD0" points="24.110149 19.9359739 22.8465011 19.9359739 22.8465011 14.9707328 24.110149 14.9707328"></polygon>
                <path d="M27.1064275,19.9359739 L26.8336684,19.9359739 C25.5139371,19.9359739 24.7126615,18.8931158 24.7126615,17.4737708 C24.7126615,16.0193621 25.5049659,14.9707328 27.171564,14.9707328 L28.5394303,14.9707328 L28.5394303,16.1467109 L27.1215541,16.1467109 C26.4450074,16.1467109 25.9665387,16.6762739 25.9665387,17.4860204 C25.9665387,18.4475981 26.513647,18.8514594 27.301837,18.8514594 L27.6275191,18.8514594 L27.1064275,19.9359739 Z" id="path3056" fill="#016FD0"></path>
                <path d="M29.799414,14.9715711 L27.6702654,19.936808 L29.0564512,19.936808 L29.4493055,18.942542 L31.7331539,18.942542 L32.1239726,19.936808 L33.5406913,19.936808 L31.4135778,14.9715711 L29.799414,14.9715711 Z M30.5871587,16.1271318 L31.2833048,17.864561 L29.8889769,17.864561 L30.5871587,16.1271318 Z" id="path3058" fill="#016FD0"></path>
                <polygon id="path3060" fill="#016FD0" points="33.6852129 19.9359739 33.6852129 14.9707328 35.2586661 14.9707328 37.2677199 18.0903431 37.2677199 14.9707328 38.5053133 14.9707328 38.5053133 19.9359739 36.9827479 19.9359739 34.9228062 16.7347021 34.9228062 19.9359739"></polygon>
                <polygon id="path3062" fill="#016FD0" points="9.06361967 28.6251437 9.06361967 23.6599026 13.1020819 23.6599026 13.1020819 24.7705507 10.3142403 24.7705507 10.3142403 25.6198662 13.0369454 25.6198662 13.0369454 26.6651801 10.3142403 26.6651801 10.3142403 27.5471626 13.1020819 27.5471626 13.1020819 28.6251437"></polygon>
                <polygon id="path3064" fill="#016FD0" points="28.8520852 28.6251437 28.8520852 23.6599026 32.8905478 23.6599026 32.8905478 24.7705507 30.1027059 24.7705507 30.1027059 25.6198662 32.812384 25.6198662 32.812384 26.6651801 30.1027059 26.6651801 30.1027059 27.5471626 32.8905478 27.5471626 32.8905478 28.6251437"></polygon>
                <polygon id="path3066" fill="#016FD0" points="13.2588165 28.6251437 15.2251245 26.1731451 13.2119998 23.6599026 14.7712045 23.6599026 15.9701229 25.2135787 17.1731126 23.6599026 18.671252 23.6599026 16.6845889 26.1425231 18.6545165 28.6251437 17.0955583 28.6251437 15.9314484 27.0959584 14.7956308 28.6251437"></polygon>
                <path d="M18.801525,23.6607409 L18.801525,28.6259778 L20.0716864,28.6259778 L20.0716864,27.0580069 L21.3744163,27.0580069 C22.47671,27.0580069 23.3122266,26.4714638 23.3122266,25.3307907 C23.3122266,24.3858621 22.6569266,23.6607409 21.5352221,23.6607409 L18.801525,23.6607409 L18.801525,23.6607409 Z M20.0716864,24.7836345 L21.4436236,24.7836345 C21.7997314,24.7836345 22.0542782,25.0025487 22.0542782,25.35529 C22.0542782,25.6866697 21.8010164,25.9269455 21.4395528,25.9269455 L20.0716864,25.9269455 L20.0716864,24.7836345 Z" id="path3068" fill="#016FD0"></path>
                <path d="M23.849603,23.6599026 L23.849603,28.6251437 L25.0871963,28.6251437 L25.0871963,26.8611743 L25.608288,26.8611743 L27.0921789,28.6251437 L28.6045669,28.6251437 L26.9761544,26.7958443 C27.6444645,26.7392707 28.3338431,26.1639568 28.3338431,25.2707451 C28.3338431,24.2258884 27.5162005,23.6599026 26.6036552,23.6599026 L23.849603,23.6599026 L23.849603,23.6599026 Z M25.0871963,24.7705507 L26.5018794,24.7705507 C26.8412423,24.7705507 27.0881076,25.0368036 27.0881076,25.2932034 C27.0881076,25.6230757 26.7682516,25.8158604 26.5201988,25.8158604 L25.0871963,25.8158604 L25.0871963,24.7705507 L25.0871963,24.7705507 Z" id="path3072" fill="#016FD0"></path>
                <path d="M33.4637487,28.6251437 L33.4637487,27.5471626 L35.9405641,27.5471626 C36.3070438,27.5471626 36.4657271,27.3485262 36.4657271,27.1306706 C36.4657271,26.9219398 36.3075441,26.710914 35.9405641,26.710914 L34.8213196,26.710914 C33.8484318,26.710914 33.3066072,26.1163894 33.3066072,25.2237916 C33.3066072,24.4276582 33.8027871,23.6599026 35.2484888,23.6599026 L37.658539,23.6599026 L37.1374469,24.7770799 L35.0530793,24.7770799 C34.6546399,24.7770799 34.5319872,24.9867846 34.5319872,25.1870427 C34.5319872,25.3928773 34.6835563,25.6198662 34.9879428,25.6198662 L36.1603996,25.6198662 C37.2449298,25.6198662 37.7155334,26.2368957 37.7155334,27.0449231 C37.7155334,27.9136314 37.1911265,28.6251437 36.1013594,28.6251437 L33.4637487,28.6251437 Z" id="path3074" fill="#016FD0"></path>
                <path d="M38.0060019,28.6251437 L38.0060019,27.5471626 L40.4828156,27.5471626 C40.8492974,27.5471626 41.0079815,27.3485262 41.0079815,27.1306706 C41.0079815,26.9219398 40.8497955,26.710914 40.4828156,26.710914 L39.3635727,26.710914 C38.3906849,26.710914 37.8488599,26.1163894 37.8488599,25.2237916 C37.8488599,24.4276582 38.3450398,23.6599026 39.7907415,23.6599026 L42.2007909,23.6599026 L41.6796988,24.7770799 L39.595332,24.7770799 C39.196893,24.7770799 39.0742403,24.9867846 39.0742403,25.1870427 C39.0742403,25.3928773 39.225809,25.6198662 39.5301955,25.6198662 L40.7026531,25.6198662 C41.7871838,25.6198662 42.2577861,26.2368957 42.2577861,27.0449231 C42.2577861,27.9136314 41.7333801,28.6251437 40.6436104,28.6251437 L38.0060019,28.6251437 Z" id="path3076" fill="#016FD0"></path>
            </g>
        </g>
    </g>
</svg>