<?xml version="1.0" encoding="UTF-8"?>
<svg width="95px" height="30px" viewBox="0 0 95 30" version="1.1" xmlns="http://www.w3.org/2000/svg" xmlns:xlink="http://www.w3.org/1999/xlink">
    <!-- Generator: Sketch 53.2 (72643) - https://sketchapp.com -->
    <title>logo_applepay</title>
    <desc>Created with Sketch.</desc>
    <defs>
        <polygon id="path-1" points="0 0.0245167557 19.5152503 0.0245167557 19.5152503 18.1889855 0 18.1889855"></polygon>
        <polygon id="path-3" points="0.0270879818 0.0930868512 13.3897217 0.0930868512 13.3897217 20.7396216 0.0270879818 20.7396216"></polygon>
    </defs>
    <g id="Page-1" stroke="none" stroke-width="1" fill="none" fill-rule="evenodd">
        <g id="homepage-v1" transform="translate(-1194.000000, -785.000000)">
            <g id="logo_applepay" transform="translate(1194.000027, 785.200000)">
                <g id="Group-13">
                    <g id="Group-3" transform="translate(0.000000, 5.275928)">
                        <mask id="mask-2" fill="white">
                            <use xlink:href="#path-1"></use>
                        </mask>
                        <g id="Clip-2"></g>
                        <path d="M18.8214426,2.36482484 C18.5817599,2.58440349 18.3389474,2.80156587 18.1019906,3.02497029 C17.2630002,3.81589642 16.6325963,4.73709985 16.4105819,5.88452667 C16.103053,7.47392979 16.4304713,8.93164612 17.3969762,10.2388489 C17.8801781,10.8924503 18.4570724,11.4351045 19.2243801,11.7470049 C19.313832,11.7833496 19.4047984,11.8156672 19.5152503,11.8575493 C19.4152984,12.1284737 19.326957,12.395371 19.2196349,12.6544154 C18.5943801,14.164887 17.7813368,15.5619952 16.6725771,16.77446 C16.4662117,17.0000793 16.2330915,17.2047576 15.9945194,17.3972539 C15.184202,18.0511573 14.2762549,18.3029529 13.2534135,18.0055502 C12.74275,17.8572516 12.2376394,17.6903275 11.7295,17.5335719 C11.2056105,17.3720844 10.6757644,17.2425119 10.1234038,17.2294237 C9.4396922,17.2131139 8.80646141,17.4175909 8.17545177,17.6494522 C7.69558156,17.82584 7.21328827,18.0084699 6.71736517,18.1260617 C5.93713437,18.3109065 5.23151415,18.0710916 4.58374489,17.6342499 C3.93052371,17.1935824 3.41420639,16.6151874 2.96684579,15.9782986 C1.8455669,14.3817474 0.991432251,12.6548181 0.46774473,10.7719387 C0.0020091347,9.0971607 -0.128635101,7.39821995 0.133158178,5.67793548 C0.364259149,4.16051711 0.931461095,2.7913974 2.00266306,1.65997837 C3.11243234,0.487784765 4.47773527,0.00614135618 6.07949015,0.164507803 C6.87678345,0.243338654 7.63843732,0.473790527 8.40301908,0.695483417 C8.72155275,0.787905794 9.04685084,0.857373593 9.36861528,0.938721393 C9.82889895,1.05510513 10.2834278,1.00224919 10.7284663,0.872072577 C11.3559423,0.688536638 11.9760481,0.480233917 12.6029183,0.294684418 C13.5349952,0.0186254245 14.4805001,-0.0603061041 15.4420578,0.125344073 C16.6863079,0.365561709 17.6692695,1.03356004 18.4925099,1.96593872 C18.5957935,2.08282585 18.696856,2.20172653 18.7982214,2.32032518 C18.807308,2.33099704 18.8116493,2.34589738 18.8214426,2.36482484" id="Fill-1" fill="#050100" mask="url(#mask-2)"></path>
                    </g>
                    <path d="M14.1445809,4.0271188e-05 C14.1578068,0.272575536 14.1960712,0.529505716 14.178403,0.782408777 C14.0818837,2.16270375 13.5380039,3.34939498 12.5824029,4.34892587 C12.1510952,4.80026521 11.6753644,5.1965337 11.0864557,5.42849574 C10.5853836,5.62572388 10.0528115,5.66851202 9.52124894,5.70717236 C9.51317201,5.70767575 9.50438836,5.69871541 9.49590759,5.69408423 C9.56971048,2.61283495 11.1297682,0.619612499 14.1445809,4.0271188e-05" id="Fill-4" fill="#050100"></path>
                    <path d="M28.0189987,13.1812834 C28.5770132,13.3277698 29.2819266,13.3862637 30.1335373,13.3862637 C33.2172056,13.3862637 35.0968067,11.892706 35.0968067,9.16906491 C35.0968067,6.56271362 33.2465855,5.30333289 30.4273353,5.30333289 C29.3113065,5.30333289 28.4594939,5.39122476 28.0189987,5.50831324 L28.0189987,13.1812834 Z M25.463965,3.66338943 C26.6974121,3.45840909 28.3126958,3.28272603 30.3684748,3.28272603 C32.8941287,3.28272603 34.7444509,3.86836978 35.9190375,4.92266948 C37.0057875,5.85978003 37.6518404,7.29484382 37.6518404,9.05197643 C37.6518404,10.8384063 37.1233068,12.2440721 36.1246961,13.2691752 C34.7737297,14.704239 32.5711527,15.4362685 30.0747776,15.4362685 C29.3113065,15.4362685 28.606393,15.4069713 28.0189987,15.2604848 L28.0189987,23.1677326 L25.463965,23.1677326 L25.463965,3.66338943 Z" id="Fill-6" fill="#050100"></path>
                    <path d="M46.4894384,15.934101 C43.6700873,15.8756071 40.4688997,16.373359 40.4688997,19.1262974 C40.4688997,20.7956388 41.5848276,21.5863636 42.9065152,21.5863636 C44.7566354,21.5863636 45.9314239,20.4148747 46.3425393,19.2141892 C46.4306788,18.950715 46.4894384,18.6578428 46.4894384,18.3942678 L46.4894384,15.934101 Z M46.871174,23.1678131 L46.6656163,21.3812825 L46.5774769,21.3812825 C45.7846259,22.4941768 44.2574816,23.489882 42.2309815,23.489882 C39.3528708,23.489882 37.8844861,21.4692751 37.8844861,19.4191696 C37.8844861,15.9926956 40.9386737,14.1184745 46.4306788,14.1477717 L46.4306788,13.8548995 C46.4306788,12.6834107 46.1077028,10.5748113 43.2001113,10.5748113 C41.8785247,10.5748113 40.4981785,10.9848726 39.4997698,11.629111 L38.9123756,9.93057294 C40.0871641,9.16914545 41.7904863,8.67119221 43.5818469,8.67119221 C47.9284433,8.67119221 48.9858135,11.629111 48.9858135,14.4698406 L48.9858135,19.7706364 C48.9858135,21.0005185 49.0445731,22.2014053 49.22065,23.1678131 L46.871174,23.1678131 Z" id="Fill-8" fill="#050100"></path>
                    <g id="Group-12" transform="translate(49.572117, 8.900335)">
                        <mask id="mask-4" fill="white">
                            <use xlink:href="#path-3"></use>
                        </mask>
                        <g id="Clip-11"></g>
                        <path d="M2.84654002,0.0930868512 L5.95938629,8.46878922 C6.28246323,9.40600044 6.63491998,10.5188947 6.86995845,11.3681134 L6.9286171,11.3681134 C7.19293442,10.5188947 7.48673251,9.43529773 7.83888637,8.41019464 L10.6584394,0.0930868512 L13.389752,0.0930868512 L9.51303067,10.1966245 C7.66280944,15.058263 6.39998247,17.5475258 4.63790067,19.0702801 C3.37507369,20.1832751 2.11244864,20.6225331 1.46629477,20.7396216 L0.820039936,18.5725283 C1.46629477,18.3675479 2.31780442,17.9573859 3.0812756,17.3132482 C3.78618909,16.7568011 4.66717951,15.7609953 5.25467473,14.4431206 C5.37219396,14.1796464 5.46013147,13.9745654 5.46013147,13.8281796 C5.46013147,13.6817938 5.40147281,13.4767128 5.28405454,13.1545433 L0.0270879818,0.0930868512 L2.84654002,0.0930868512 Z" id="Fill-10" fill="#050100" mask="url(#mask-4)"></path>
                    </g>
                </g>
                <g id="NEW" transform="translate(66.600003, 9.000000)">
                    <rect id="Rectangle-4" fill="#FFD200" x="0" y="0" width="28" height="11.7000005" rx="1.80000007"></rect>
                    <text id="SOON" font-family="Graphik-Semibold, Graphik" font-size="8" font-weight="500" fill="#FFFFFF">
                        <tspan x="1.80000007" y="8.70000011">SOON</tspan>
                    </text>
                </g>
            </g>
        </g>
    </g>
</svg>