<?xml version="1.0" encoding="UTF-8"?>
<svg width="53px" height="42px" viewBox="0 0 53 42" version="1.1" xmlns="http://www.w3.org/2000/svg" xmlns:xlink="http://www.w3.org/1999/xlink">
    <!-- Generator: Sketch 53.2 (72643) - https://sketchapp.com -->
    <title>logo_mastercard</title>
    <desc>Created with Sketch.</desc>
    <g id="Page-1" stroke="none" stroke-width="1" fill="none" fill-rule="evenodd">
        <g id="homepage-v1" transform="translate(-702.000000, -779.000000)" fill-rule="nonzero">
            <g id="logo_mastercard" transform="translate(700.800008, 778.900000)">
                <g id="Group" transform="translate(28.426173, 38.265548) scale(-1, 1) rotate(-180.000000) translate(-28.426173, -38.265548) translate(3.226172, 34.665547)" fill="#231F20">
                    <path d="M49.4446039,1.01977389 L49.4446039,0.91473718 L49.542463,0.91473718 C49.564095,0.91473718 49.5826368,0.919836049 49.596028,0.92799424 C49.6083892,0.936152431 49.6155998,0.950429266 49.6155998,0.967765422 C49.6155998,0.985101578 49.6083892,0.998358639 49.596028,1.00651683 C49.5826368,1.01569479 49.564095,1.01977389 49.542463,1.01977389 L49.4446039,1.01977389 Z M49.5434931,1.09319761 C49.5939678,1.09319761 49.6331115,1.0819801 49.660924,1.05954507 C49.6887366,1.03711005 49.7021279,1.00651683 49.7021279,0.967765422 C49.7021279,0.935132657 49.6918269,0.908618536 49.6691648,0.887203284 C49.6475328,0.866807807 49.6166299,0.853550746 49.5754261,0.848451877 L49.7052182,0.700584663 L49.6042688,0.700584663 L49.4837476,0.847432103 L49.4446039,0.847432103 L49.4446039,0.700584663 L49.360136,0.700584663 L49.360136,1.09319761 L49.5434931,1.09319761 Z M49.5177407,0.564954735 C49.564095,0.564954735 49.6073591,0.5741327 49.6465027,0.591468856 C49.6866764,0.608805012 49.7216997,0.632259812 49.7515725,0.661833255 C49.7814453,0.691406698 49.8051375,0.72607901 49.8226491,0.766869965 C49.8391306,0.806641147 49.8484015,0.849471651 49.8484015,0.895361476 C49.8484015,0.941251301 49.8391306,0.984081804 49.8226491,1.02385299 C49.8051375,1.06362417 49.7814453,1.09931625 49.7515725,1.1288897 C49.7216997,1.15846314 49.6866764,1.18191794 49.6465027,1.19925409 C49.6073591,1.21557048 49.564095,1.22372867 49.5177407,1.22372867 C49.4713864,1.22372867 49.4270923,1.21557048 49.3869185,1.19925409 C49.3457147,1.18191794 49.3096613,1.15846314 49.2797886,1.1288897 C49.2499158,1.09931625 49.2262236,1.06362417 49.209742,1.02385299 C49.1922304,0.984081804 49.1839896,0.941251301 49.1839896,0.895361476 C49.1839896,0.849471651 49.1922304,0.806641147 49.209742,0.766869965 C49.2262236,0.72607901 49.2499158,0.691406698 49.2797886,0.661833255 C49.3096613,0.632259812 49.3457147,0.608805012 49.3869185,0.591468856 C49.4270923,0.5741327 49.4713864,0.564954735 49.5177407,0.564954735 L49.5177407,0.564954735 Z M49.5177407,1.31856764 C49.5785164,1.31856764 49.6341416,1.30735013 49.6877065,1.2849151 C49.7402414,1.26349985 49.7855657,1.23290663 49.8257394,1.19415523 C49.864883,1.15642359 49.8957859,1.11155354 49.918448,1.05954507 C49.9411101,1.00855638 49.9524412,0.953488587 49.9524412,0.895361476 C49.9524412,0.837234364 49.9411101,0.782166574 49.918448,0.731177879 C49.8957859,0.680189185 49.864883,0.635319134 49.8257394,0.596567726 C49.7855657,0.558836092 49.7402414,0.528242875 49.6877065,0.50580785 C49.6341416,0.483372824 49.5785164,0.472155311 49.5177407,0.472155311 C49.455935,0.472155311 49.3992797,0.483372824 49.3457147,0.50580785 C49.2921497,0.528242875 49.2457954,0.558836092 49.2066518,0.596567726 C49.1675081,0.635319134 49.1366052,0.680189185 49.1139431,0.731177879 C49.091281,0.782166574 49.07995,0.837234364 49.07995,0.895361476 C49.07995,0.953488587 49.091281,1.00855638 49.1139431,1.05954507 C49.1366052,1.11155354 49.1675081,1.15642359 49.2066518,1.19415523 C49.2457954,1.23290663 49.2921497,1.26349985 49.3457147,1.2849151 C49.3992797,1.30735013 49.455935,1.31856764 49.5177407,1.31856764 L49.5177407,1.31856764 Z M9.38417378,2.83089232 C9.38417378,3.57940635 9.87964992,4.19433001 10.6893053,4.19433001 C11.4629073,4.19433001 11.985166,3.60592048 11.985166,2.83089232 C11.985166,2.05586416 11.4629073,1.46745463 10.6893053,1.46745463 C9.87964992,1.46745463 9.38417378,2.08237828 9.38417378,2.83089232 L9.38417378,2.83089232 Z M12.8669281,2.83089232 L12.8669281,4.9601802 L11.931601,4.9601802 L11.931601,4.44315484 C11.6349334,4.82658982 11.1847814,5.06725646 10.5729045,5.06725646 C9.36666215,5.06725646 8.4210341,4.13110403 8.4210341,2.83089232 C8.4210341,1.52966084 9.36666215,0.594528178 10.5729045,0.594528178 C11.1847814,0.594528178 11.6349334,0.835194816 11.931601,1.2186298 L11.931601,0.701604436 L12.8669281,0.701604436 L12.8669281,2.83089232 Z M44.4743911,2.83089232 C44.4743911,3.57940635 44.9698673,4.19433001 45.7795226,4.19433001 C46.5541548,4.19433001 47.0753833,3.60592048 47.0753833,2.83089232 C47.0753833,2.05586416 46.5541548,1.46745463 45.7795226,1.46745463 C44.9698673,1.46745463 44.4743911,2.08237828 44.4743911,2.83089232 L44.4743911,2.83089232 Z M47.9581755,2.83089232 L47.9581755,6.67034102 L47.0218183,6.67034102 L47.0218183,4.44315484 C46.7251507,4.82658982 46.2749988,5.06725646 45.6631218,5.06725646 C44.4568795,5.06725646 43.5112514,4.13110403 43.5112514,2.83089232 C43.5112514,1.52966084 44.4568795,0.594528178 45.6631218,0.594528178 C46.2749988,0.594528178 46.7251507,0.835194816 47.0218183,1.2186298 L47.0218183,0.701604436 L47.9581755,0.701604436 L47.9581755,2.83089232 Z M24.4771391,4.23818029 C25.0797452,4.23818029 25.4670613,3.86392327 25.5659505,3.20514934 L23.3337327,3.20514934 C23.433652,3.82007299 23.8106671,4.23818029 24.4771391,4.23818029 L24.4771391,4.23818029 Z M24.4956809,5.06725646 C23.2348435,5.06725646 22.3530813,4.15863792 22.3530813,2.83089232 C22.3530813,1.47663259 23.2708968,0.594528178 24.5585167,0.594528178 C25.206447,0.594528178 25.7997823,0.754632679 26.3220409,1.1910959 L25.8636482,1.87740373 C25.5031147,1.59288682 25.0436919,1.43176254 24.6120817,1.43176254 C24.0094756,1.43176254 23.4604345,1.70812127 23.3254919,2.47499123 L26.5198193,2.47499123 C26.5290902,2.59022568 26.5383611,2.7064799 26.5383611,2.83089232 C26.5290902,4.15863792 25.7008931,5.06725646 24.4956809,5.06725646 L24.4956809,5.06725646 Z M35.7896525,2.83089232 C35.7896525,3.57940635 36.2851286,4.19433001 37.094784,4.19433001 C37.868386,4.19433001 38.3906446,3.60592048 38.3906446,2.83089232 C38.3906446,2.05586416 37.868386,1.46745463 37.094784,1.46745463 C36.2851286,1.46745463 35.7896525,2.08237828 35.7896525,2.83089232 L35.7896525,2.83089232 Z M39.2724067,2.83089232 L39.2724067,4.9601802 L38.3370797,4.9601802 L38.3370797,4.44315484 C38.0393819,4.82658982 37.5902601,5.06725646 36.9783831,5.06725646 C35.7721408,5.06725646 34.8265128,4.13110403 34.8265128,2.83089232 C34.8265128,1.52966084 35.7721408,0.594528178 36.9783831,0.594528178 C37.5902601,0.594528178 38.0393819,0.835194816 38.3370797,1.2186298 L38.3370797,0.701604436 L39.2724067,0.701604436 L39.2724067,2.83089232 Z M30.5073206,2.83089232 C30.5073206,1.5388388 31.4158652,0.594528178 32.8023743,0.594528178 C33.4503046,0.594528178 33.8819148,0.737296523 34.3495784,1.10237558 L33.9004566,1.85088961 C33.5491938,1.60104501 33.1804195,1.46745463 32.7745617,1.46745463 C32.0277422,1.47663259 31.4787011,2.01099411 31.4787011,2.83089232 C31.4787011,3.65079053 32.0277422,4.18515205 32.7745617,4.19433001 C33.1804195,4.19433001 33.5491938,4.06073963 33.9004566,3.81089503 L34.3495784,4.55940906 C33.8819148,4.92448812 33.4503046,5.06725646 32.8023743,5.06725646 C31.4158652,5.06725646 30.5073206,4.12294584 30.5073206,2.83089232 L30.5073206,2.83089232 Z M42.5666535,5.06725646 C42.0268832,5.06725646 41.6756205,4.81741186 41.4325179,4.44315484 L41.4325179,4.9601802 L40.5054316,4.9601802 L40.5054316,0.701604436 L41.4417887,0.701604436 L41.4417887,3.08889511 C41.4417887,3.79355887 41.7477272,4.18515205 42.3596042,4.18515205 C42.5491419,4.18515205 42.7469203,4.15863792 42.9446987,4.07807579 L43.2331255,4.95100224 C43.0260763,5.03156437 42.7561911,5.06725646 42.5666535,5.06725646 L42.5666535,5.06725646 Z M17.4930888,4.62161527 C17.0429369,4.91531015 16.4228192,5.06725646 15.7388355,5.06725646 C14.648994,5.06725646 13.9474987,4.5502311 13.9474987,3.70381877 C13.9474987,3.00935275 14.4697573,2.58104772 15.4318669,2.44745734 L15.873778,2.38525113 C16.3867658,2.31386696 16.6288384,2.18027658 16.6288384,1.93960994 C16.6288384,1.61022297 16.2868465,1.42258458 15.648187,1.42258458 C15.0002567,1.42258458 14.5325932,1.62755913 14.2173838,1.86822577 L13.7765028,1.14724563 C14.2894905,0.772988609 14.9374209,0.594528178 15.6389162,0.594528178 C16.8812119,0.594528178 17.6012489,1.17375975 17.6012489,1.98447999 C17.6012489,2.73299403 17.0346961,3.1245872 16.098339,3.25817758 L15.6574579,3.32140356 C15.2526302,3.3744318 14.92815,3.45397417 14.92815,3.73951086 C14.92815,4.05156167 15.2340885,4.23818029 15.7470762,4.23818029 C16.2961174,4.23818029 16.8276469,4.03320574 17.0882611,3.87310124 L17.4930888,4.62161527 Z M29.5616926,5.06725646 C29.0219223,5.06725646 28.6706596,4.81741186 28.4285871,4.44315484 L28.4285871,4.9601802 L27.5015007,4.9601802 L27.5015007,0.701604436 L28.4368278,0.701604436 L28.4368278,3.08889511 C28.4368278,3.79355887 28.7427663,4.18515205 29.3546433,4.18515205 C29.5441809,4.18515205 29.7419593,4.15863792 29.9397378,4.07807579 L30.2281646,4.95100224 C30.0211153,5.03156437 29.7512302,5.06725646 29.5616926,5.06725646 L29.5616926,5.06725646 Z M21.5794793,4.9601802 L20.0497869,4.9601802 L20.0497869,6.25223372 L19.1041588,6.25223372 L19.1041588,4.9601802 L18.2316676,4.9601802 L18.2316676,4.11376787 L19.1041588,4.11376787 L19.1041588,2.17109861 C19.1041588,1.18293771 19.4914749,0.594528178 20.5977979,0.594528178 C21.0036557,0.594528178 21.4713192,0.718940593 21.7679869,0.923915145 L21.4981017,1.71729923 C21.2189457,1.55719473 20.9130073,1.47663259 20.6699046,1.47663259 C20.2022411,1.47663259 20.0497869,1.76216928 20.0497869,2.18945454 L20.0497869,4.11376787 L21.5794793,4.11376787 L21.5794793,4.9601802 Z M7.59386708,0.701604436 L7.59386708,3.3744318 C7.59386708,4.38094863 6.94593675,5.0580785 5.9014195,5.06725646 C5.35237837,5.07643443 4.78582562,4.90715196 4.38923869,4.30956446 C4.09257107,4.78171977 3.62490752,5.06725646 2.96770633,5.06725646 C2.50828355,5.06725646 2.05916173,4.93366608 1.70789903,4.43499665 L1.70789903,4.9601802 L0.77154184,4.9601802 L0.77154184,0.701604436 L1.71613979,0.701604436 L1.71613979,3.06238099 C1.71613979,3.80171706 2.13023835,4.19433001 2.76992791,4.19433001 C3.39107575,4.19433001 3.70525501,3.79355887 3.70525501,3.07155896 L3.70525501,0.701604436 L4.65088305,0.701604436 L4.65088305,3.06238099 C4.65088305,3.80171706 5.08249324,4.19433001 5.70364108,4.19433001 C6.34230055,4.19433001 6.64823903,3.79355887 6.64823903,3.07155896 L6.64823903,0.701604436 L7.59386708,0.701604436 Z" id="Shape"></path>
                </g>
                <g id="Group" transform="translate(52.217534, 26.491437) scale(-1, 1) rotate(-180.000000) translate(-52.217534, -26.491437) translate(51.187438, 25.981550)" fill="#F79410">
                    <path d="M2.06019183,-2.77555756e-17 L2.06019183,0.622062073 L1.89640658,0.622062073 L1.70686893,0.194776813 L1.51836138,0.622062073 L1.35354603,0.622062073 L1.35354603,-2.77555756e-17 L1.46994687,-2.77555756e-17 L1.46994687,0.469095989 L1.64712337,0.0642457551 L1.76764459,0.0642457551 L1.94482109,0.470115763 L1.94482109,-2.77555756e-17 L2.06019183,-2.77555756e-17 Z M1.02082505,2.77555756e-17 L1.02082505,0.516005588 L1.23096462,0.516005588 L1.23096462,0.621042299 L0.695314742,0.621042299 L0.695314742,0.516005588 L0.905454309,0.516005588 L0.905454309,2.77555756e-17 L1.02082505,2.77555756e-17 Z" id="Shape"></path>
                </g>
                <polygon id="Path" fill="#FF5F00" points="34.6234959 29.6772102 20.447728 29.6772102 20.447728 4.45616232 34.6234959 4.45616232"></polygon>
                <g id="Group" transform="translate(14.660237, 17.064647) scale(-1, 1) rotate(-180.000000) translate(-14.660237, -17.064647) translate(0.753942, 0.748264)" fill="#EB001B">
                    <path d="M20.6019183,16.3163822 C20.6019183,21.4325879 23.0216136,25.9899574 26.7897045,28.9269062 C24.0341979,31.07455 20.5565941,32.3564058 16.7771722,32.3564058 C7.82975905,32.3564058 0.576853712,25.175158 0.576853712,16.3163822 C0.576853712,7.45760646 7.82975905,0.276358724 16.7771722,0.276358724 C20.5565941,0.276358724 24.0341979,1.5582145 26.7897045,3.70585832 C23.0216136,6.64280712 20.6019183,11.2001766 20.6019183,16.3163822" id="Path"></path>
                </g>
                <g id="Group" transform="translate(40.350829, 17.064647) scale(-1, 1) rotate(-180.000000) translate(-40.350829, -17.064647) translate(26.959582, 0.748264)" fill="#F79E1B">
                    <path d="M26.7824938,16.3163822 C26.7824938,7.45760646 19.5295884,0.276358724 10.5821753,0.276358724 C6.80275342,0.276358724 3.32514961,1.5582145 0.568612945,3.70585832 C4.3377339,6.64280712 6.7574292,11.2001766 6.7574292,16.3163822 C6.7574292,21.4325879 4.3377339,25.9899574 0.568612945,28.9269062 C3.32514961,31.07455 6.80275342,32.3564058 10.5821753,32.3564058 C19.5295884,32.3564058 26.7824938,25.175158 26.7824938,16.3163822" id="Path"></path>
                </g>
            </g>
        </g>
    </g>
</svg>