<?xml version="1.0" encoding="UTF-8"?>
<svg width="90px" height="23px" viewBox="0 0 90 23" version="1.1" xmlns="http://www.w3.org/2000/svg" xmlns:xlink="http://www.w3.org/1999/xlink">
    <!-- Generator: Sketch 53.2 (72643) - https://sketchapp.com -->
    <title>logo_paypal</title>
    <desc>Created with Sketch.</desc>
    <g id="Page-1" stroke="none" stroke-width="1" fill="none" fill-rule="evenodd">
        <g id="homepage-v1" transform="translate(-1072.000000, -788.000000)" fill-rule="nonzero">
            <g id="logo_paypal" transform="translate(1072.500022, 788.800000)">
                <path d="M33.2048408,4.89846794 L28.2906882,4.89846794 C27.9545801,4.8982538 27.6683333,5.14520674 27.6159713,5.48056473 L25.6284663,18.209033 C25.6099748,18.3285661 25.6442099,18.4502855 25.7221576,18.5421431 C25.8001054,18.6340007 25.913954,18.6867907 26.0337276,18.6866136 L28.3797882,18.6866136 C28.7161291,18.6867717 29.0024609,18.4394375 29.0545052,18.103791 L29.5905423,14.6707264 C29.6425445,14.3353516 29.928472,14.0881032 30.2645407,14.0879038 L31.820198,14.0879038 C35.0572587,14.0879038 36.9254845,12.5056457 37.4133789,9.37016166 C37.6332547,7.99838741 37.42272,6.92056479 36.7868047,6.16572605 C36.0883756,5.33685505 34.8495982,4.89846794 33.2048408,4.89846794 L33.2048408,4.89846794 Z M33.7717755,9.54725844 C33.5030384,11.3283875 32.1557601,11.3283875 30.8530319,11.3283875 L30.1114899,11.3283875 L30.631719,8.00201645 C30.6631827,7.80096799 30.8347522,7.6529067 31.0362617,7.65290353 L31.3761351,7.65290353 C32.2635424,7.65290353 33.1006513,7.65290353 33.5332175,8.16387129 C33.7911763,8.46871001 33.8702167,8.92161326 33.7717755,9.54725844 L33.7717755,9.54725844 Z M47.8941261,9.48991973 L45.54088,9.48991973 C45.3393705,9.4899229 45.167801,9.63798419 45.1363373,9.83903265 L45.0321478,10.5038714 L44.8676002,10.2629036 C44.3581493,9.51604877 43.2221243,9.26637134 42.0882549,9.26637134 C39.4878282,9.26637134 37.266795,11.2558069 36.8342289,14.0465328 C36.6093232,15.4386296 36.9290773,16.7697587 37.710858,17.6980652 C38.4279693,18.5516136 39.4540564,18.9072588 40.6748702,18.9072588 C42.7701573,18.9072588 43.9320501,17.5463717 43.9320501,17.5463717 L43.8271421,18.2068556 C43.8082235,18.3263642 43.8420615,18.4482478 43.9197407,18.540394 C43.9974199,18.6325402 44.1111498,18.6857074 44.2309663,18.6858878 L46.3506841,18.6858878 C46.687025,18.6860459 46.9733568,18.4387117 47.0254011,18.1030652 L48.2972318,9.9675004 C48.3161769,9.8482538 48.2824027,9.72661317 48.2048305,9.63470925 C48.1272582,9.54280534 48.0136907,9.48988239 47.8941261,9.48991973 L47.8941261,9.48991973 Z M44.6139526,14.1162102 C44.3868913,15.4741942 43.3198469,16.3858071 41.9589162,16.3858071 C41.2755766,16.3858071 40.7294798,16.1644361 40.3788282,15.74492 C40.0310508,15.3283071 39.8988379,14.7353232 40.0094943,14.0748393 C40.2214661,12.7284682 41.3064742,11.7870972 42.646567,11.7870972 C43.314817,11.7870972 43.8580396,12.0113714 44.2158768,12.4345166 C44.5744324,12.8620166 44.716705,13.4586296 44.6139526,14.1162102 L44.6139526,14.1162102 Z M60.4270476,9.48991973 L58.0623047,9.48991973 C57.835889,9.49028177 57.6242549,9.60355095 57.4968071,9.79258103 L54.2353159,14.6453232 L52.8528287,9.98201653 C52.7656946,9.68998174 52.499472,9.4900671 52.1975126,9.48991973 L49.873727,9.48991973 C49.741379,9.48956423 49.6170178,9.55382922 49.5398626,9.66244773 C49.4627075,9.77106625 49.4422688,9.91064951 49.4849923,10.0371778 L52.0897303,17.7583072 L49.6409173,21.2501621 C49.5521965,21.3763748 49.540651,21.5420574 49.6109935,21.6795794 C49.681336,21.8171013 49.8217974,21.9034537 49.9750423,21.903388 L52.336911,21.903388 C52.5607525,21.9036994 52.7704911,21.7930237 52.8980973,21.6072589 L60.7633282,10.1395165 C60.8502174,10.01306 60.8604164,9.84833169 60.7898021,9.71192544 C60.7191879,9.5755192 60.5794377,9.48999212 60.4270476,9.48991973 L60.4270476,9.48991973 Z" id="Shape" fill="#253B80"></path>
                <path d="M68.2563511,4.89846794 L63.3414799,4.89846794 C63.005644,4.89861105 62.7198012,5.14547832 62.6674815,5.48056473 L60.6799766,18.209033 C60.6612684,18.3283603 60.6952275,18.4499785 60.7729067,18.5418455 C60.8505859,18.6337124 60.9641946,18.6866144 61.0838008,18.6866136 L63.6059058,18.6866136 C63.8409672,18.6862655 64.0408657,18.5132812 64.0772735,18.2787104 L64.641334,14.6707264 C64.6933362,14.3353516 64.9792637,14.0881032 65.3153324,14.0879038 L66.8702712,14.0879038 C70.1080504,14.0879038 71.9755577,12.5056457 72.4641706,9.37016166 C72.684765,7.99838741 72.4727932,6.92056479 71.8368779,6.16572605 C71.1391673,5.33685505 69.9011084,4.89846794 68.2563511,4.89846794 L68.2563511,4.89846794 Z M68.8232858,9.54725844 C68.5552672,11.3283875 67.207989,11.3283875 65.9045421,11.3283875 L65.1637187,11.3283875 L65.6846663,8.00201645 C65.7155238,7.80092147 65.8870294,7.65265191 66.0884905,7.65290353 L66.4283639,7.65290353 C67.3150527,7.65290353 68.1528801,7.65290353 68.5854463,8.16387129 C68.8434052,8.46871001 68.9217269,8.92161326 68.8232858,9.54725844 L68.8232858,9.54725844 Z M82.9449178,9.48991973 L80.5931088,9.48991973 C80.3915353,9.48935965 80.2198578,9.63777778 80.1892846,9.83903265 L80.0850951,10.5038714 L79.919829,10.2629036 C79.4103782,9.51604877 78.2750717,9.26637134 77.1412023,9.26637134 C74.5407755,9.26637134 72.3204609,11.2558069 71.8878948,14.0465328 C71.6637077,15.4386296 71.9820246,16.7697587 72.7638053,17.6980652 C73.4823537,18.5516136 74.5070038,18.9072588 75.7278175,18.9072588 C77.8231047,18.9072588 78.9849975,17.5463717 78.9849975,17.5463717 L78.8800894,18.2068556 C78.8611311,18.3266147 78.8951519,18.4487452 78.9731542,18.5409465 C79.0511565,18.6331477 79.1652832,18.6861326 79.2853507,18.6858878 L81.40435,18.6858878 C81.7404187,18.6856885 82.0263463,18.43844 82.0783484,18.1030652 L83.3508977,9.9675004 C83.3691534,9.8478871 83.3347342,9.72618962 83.2566793,9.63436854 C83.1786245,9.54254746 83.0647338,9.48977839 82.9449178,9.48991973 L82.9449178,9.48991973 Z M79.6647443,14.1162102 C79.4391201,15.4741942 78.3706386,16.3858071 77.0097079,16.3858071 C76.3278055,16.3858071 75.7802716,16.1644361 75.4296199,15.74492 C75.0818425,15.3283071 74.9510667,14.7353232 75.060286,14.0748393 C75.2736949,12.7284682 76.3572659,11.7870972 77.6973587,11.7870972 C78.3656088,11.7870972 78.9088314,12.0113714 79.2666685,12.4345166 C79.6266612,12.8620166 79.7689338,13.4586296 79.6647443,14.1162102 L79.6647443,14.1162102 Z M85.7192332,5.24758085 L83.7022678,18.209033 C83.6835597,18.3283603 83.7175187,18.4499785 83.7951979,18.5418455 C83.8728771,18.6337124 83.9864858,18.6866144 84.1060921,18.6866136 L86.1338357,18.6866136 C86.4708349,18.6866136 86.7568172,18.4398394 86.8085526,18.103791 L88.7974947,5.3760486 C88.8161801,5.25665285 88.7822351,5.13497452 88.704583,5.04300007 C88.6269308,4.95102562 88.5133399,4.89795605 88.3936704,4.89774213 L86.1230575,4.89774213 C85.9216993,4.89846232 85.7506173,5.04667317 85.7192332,5.24758085 L85.7192332,5.24758085 Z" id="Shape" fill="#179BD7"></path>
                <path d="M5.22097279,21.1601621 L5.59677361,18.749033 L4.75966471,18.7294362 L0.762379869,18.7294362 L3.54028804,0.937741973 C3.55738115,0.825384163 3.65337391,0.742626454 3.76591225,0.743225836 L10.5058964,0.743225836 C12.7434562,0.743225836 14.2876167,1.21354844 15.093828,2.14185492 C15.4717845,2.57733881 15.7124982,3.03241948 15.828903,3.53322595 C15.9510563,4.05870984 15.9532119,4.68653244 15.8339329,5.45225828 L15.8253103,5.50814538 L15.8253103,5.99879056 L16.2032668,6.21508089 C16.4918049,6.362739 16.7511604,6.56247968 16.9685208,6.80443575 C17.2918676,7.17677448 17.5009652,7.6500003 17.5893467,8.21104871 C17.6806023,8.78806487 17.6504233,9.4746778 17.5009652,10.2520165 C17.3285136,11.1462101 17.0497168,11.9250005 16.6731974,12.5622586 C16.3409894,13.133139 15.8943225,13.6275814 15.3618466,14.0138715 C14.8617369,14.3724199 14.2674973,14.6445974 13.5956546,14.8187909 C12.9446497,14.9900812 12.2023892,15.0764522 11.3882738,15.0764522 L10.8637335,15.0764522 C10.4886512,15.0764522 10.1243472,15.2129038 9.83836491,15.4575006 C9.55278811,15.7047073 9.36334298,16.0462723 9.30376489,16.4213716 L9.26424472,16.6383878 L8.60030599,20.8879847 L8.57012695,21.0440331 C8.56222292,21.0933879 8.5485705,21.1180654 8.52845115,21.1347589 C8.50896119,21.1508589 8.48464571,21.1598135 8.4594705,21.1601621 L5.22097279,21.1601621 Z" id="Path" fill="#253B80"></path>
                <path d="M16.5611039,5.56475829 C16.5409845,5.69467765 16.517991,5.82750023 16.4921232,5.96395185 C15.6032788,10.5735488 12.562382,12.1659682 8.67862776,12.1659682 L6.70118252,12.1659682 C6.22622202,12.1659682 5.82599055,12.5143553 5.75198007,12.9875812 L4.73954535,19.4733879 L4.45284453,21.3118557 C4.42973136,21.4594388 4.47172883,21.6098464 4.56778018,21.7234803 C4.66383153,21.8371142 4.80431153,21.9025872 4.95223568,21.9026622 L8.4594705,21.9026622 C8.87479148,21.9026622 9.22759875,21.5978234 9.29298666,21.1841137 L9.32747698,21.0041137 L9.98782298,16.7712103 L10.0302173,16.5389523 C10.0948867,16.123791 10.4484125,15.8189522 10.8637335,15.8189522 L11.3882738,15.8189522 C14.7862893,15.8189522 17.4463555,14.4254038 18.2238249,10.392823 C18.5486088,8.70822615 18.3804685,7.30161319 17.5210846,6.31233896 C17.2487046,6.00631213 16.9233978,5.7529809 16.5611039,5.56475829 L16.5611039,5.56475829 Z" id="Path" fill="#179BD7"></path>
                <path d="M15.6313022,5.19024214 C15.3474946,5.10731236 15.058781,5.04258653 14.7668885,4.99645181 C14.190124,4.90691767 13.6072123,4.86395908 13.02369,4.86798406 L7.74092208,4.86798406 C7.3255133,4.86766007 6.97192435,5.17335746 6.90812447,5.58798409 L5.78431475,12.7778231 L5.75198007,12.9875812 C5.82432147,12.5146418 6.22741693,12.1657294 6.70118252,12.1659682 L8.67862776,12.1659682 C12.562382,12.1659682 15.6032788,10.572823 16.4921232,5.96395185 C16.5187095,5.82750023 16.5409845,5.69467765 16.5611039,5.56475829 C16.3265591,5.44052096 16.082115,5.33636583 15.8303401,5.25338731 C15.7643329,5.23126461 15.6979784,5.21021351 15.6313022,5.19024214 L15.6313022,5.19024214 Z" id="Path" fill="#222D65"></path>
                <path d="M6.90812447,5.58798409 C6.97139154,5.17316645 7.32540978,4.86740645 7.74092208,4.86870987 L13.02369,4.86870987 C13.6495457,4.86870987 14.2337256,4.91008084 14.7668885,4.99717762 C15.127677,5.05445263 15.4834834,5.14011659 15.8310587,5.25338731 C16.0933289,5.34120989 16.3369168,5.44500022 16.5618224,5.56475829 C16.8262482,3.86129048 16.5596668,2.70145172 15.6478288,1.65120974 C14.6425796,0.49500002 12.8282449,0 10.5066149,0 L3.76663079,0 C3.29238884,0 2.88784608,0.348387111 2.81455414,0.822338742 L0.00718548416,18.7969362 C-0.019277529,18.9658221 0.0287343871,19.1379489 0.13859166,19.2680384 C0.248448933,19.398128 0.409153345,19.4731566 0.578431475,19.4733879 L4.73954535,19.4733879 L5.78431475,12.7778231 L6.90812447,5.58798409 Z" id="Path" fill="#253B80"></path>
            </g>
        </g>
    </g>
</svg>