<?xml version="1.0" encoding="UTF-8"?>
<svg width="62px" height="21px" viewBox="0 0 62 21" version="1.1" xmlns="http://www.w3.org/2000/svg" xmlns:xlink="http://www.w3.org/1999/xlink">
    <!-- Generator: Sketch 53.2 (72643) - https://sketchapp.com -->
    <title>logo_visa</title>
    <desc>Created with Sketch.</desc>
    <g id="Page-1" stroke="none" stroke-width="1" fill="none" fill-rule="evenodd">
        <g id="homepage-v1" transform="translate(-606.000000, -789.000000)">
            <g id="logo_visa" transform="translate(606.300004, 789.700000)">
                <g id="Visa_Inc._logo">
                    <polygon id="polygon9" fill="#0742A6" points="26.4583522 19.4379321 21.5349588 19.4379321 24.6144018 0.582511069 29.537526 0.582511069"></polygon>
                    <path d="M44.3060909,1.04347231 C43.3349814,0.661959566 41.7947214,0.240722571 39.8901944,0.240722571 C35.0281852,0.240722571 31.6043981,2.80813539 31.5833983,6.47876257 C31.5430139,9.18694319 34.0347297,10.6911325 35.8983338,11.594126 C37.8031301,12.5168483 38.4506262,13.1191106 38.4506262,13.9415891 C38.4312417,15.2047669 36.9114431,15.7870337 35.4939517,15.7870337 C33.5283096,15.7870337 32.4750852,15.4868357 30.8745179,14.7840631 L30.2262141,14.4827987 L29.5372567,18.7154306 C30.6919806,19.2363782 32.8194293,19.6986724 35.0281852,19.7189345 C40.1941541,19.7189345 43.5573647,17.1912459 43.5972106,13.2796072 C43.6168643,11.1331647 42.3011414,9.48847423 39.4645431,8.14451493 C37.7425535,7.28177891 36.6879829,6.70004529 36.6879829,5.81731384 C36.7081751,5.01483071 37.5799391,4.19288536 39.5237736,4.19288536 C41.1243408,4.1526279 42.3003338,4.53360743 43.191213,4.91485357 L43.636518,5.11507445 L44.3060909,1.04347231 L44.3060909,1.04347231 L44.3060909,1.04347231 Z" id="path11" fill="#0742A6"></path>
                    <path d="M50.8497054,12.7581264 C51.2551645,11.6749075 52.8153474,7.482533 52.8153474,7.482533 C52.794886,7.52279046 53.2199988,6.37931864 53.4631127,5.67734585 L53.8071876,7.30204095 C53.8071876,7.30204095 54.7395281,11.8154087 54.9419884,12.7581264 C54.1725315,12.7581264 51.8221611,12.7581264 50.8497054,12.7581264 L50.8497054,12.7581264 Z M56.9270149,0.582511069 L53.1187686,0.582511069 C51.9443911,0.582511069 51.0521657,0.923233144 50.5454764,2.14695327 L43.2324051,19.4376655 L48.398374,19.4376655 C48.398374,19.4376655 49.2488689,17.1104644 49.4316754,16.6092457 C49.9984028,16.6092457 55.0238341,16.6092457 55.7529066,16.6092457 C55.8942519,17.2712276 56.3403646,19.4376655 56.3403646,19.4376655 L60.8989526,19.4376655 L56.9270149,0.582511069 L56.9270149,0.582511069 L56.9270149,0.582511069 Z" id="path13" fill="#0742A6" fill-rule="nonzero"></path>
                    <path d="M17.4227528,0.582511069 L12.6011279,13.4401038 L12.0742465,10.8324335 C11.1828288,7.82352168 8.3871533,4.55440268 5.26732593,2.92890777 L9.68376088,19.4179366 L14.8901142,19.4179366 L22.6288368,0.582511069 L17.4227528,0.582511069 L17.4227528,0.582511069 L17.4227528,0.582511069 Z" id="path15" fill="#0742A6"></path>
                    <path d="M8.1238472,0.582511069 L0.20258719,0.582511069 L0.121549217,0.963490604 C6.3006274,2.52819941 10.3929105,6.29987015 12.0742465,10.8332333 L10.3522569,2.16748191 C10.0687586,0.963223998 9.19753304,0.622235317 8.1238472,0.582511069 L8.1238472,0.582511069 Z" id="path17" fill="#FAA619"></path>
                </g>
            </g>
        </g>
    </g>
</svg>